<?xml version="1.0" standalone="no"?>
<!DOCTYPE svg PUBLIC "-//W3C//DTD SVG 20010904//EN"
 "http://www.w3.org/TR/2001/REC-SVG-20010904/DTD/svg10.dtd">
<svg version="1.0" xmlns="http://www.w3.org/2000/svg"
 width="120.000000pt" height="120.000000pt" viewBox="0 0 120.000000 120.000000"
 preserveAspectRatio="xMidYMid meet">
<metadata>
Created by potrace 1.14, written by Peter Selinger 2001-2017
</metadata>
<g transform="translate(0.000000,120.000000) scale(0.100000,-0.100000)"
fill="#000000" stroke="none">
<path d="M841 1038 c-27 -24 -61 -51 -75 -61 -13 -9 -48 -50 -76 -90 -59 -85
-70 -93 -174 -136 -200 -83 -265 -166 -274 -350 -5 -110 -16 -132 -57 -113
l-26 12 5 107 c3 60 10 124 16 143 6 19 13 61 17 92 5 55 4 58 -21 69 -37 17
-52 -1 -60 -70 -4 -29 -9 -57 -12 -62 -10 -17 -18 -106 -19 -206 l0 -103 33
-32 32 -33 241 -3 c133 -2 252 -1 265 2 50 13 11 79 -55 92 l-33 7 28 13 c40
18 58 34 75 66 l14 27 55 -90 c33 -54 66 -97 82 -105 30 -15 105 -19 127 -5
21 13 3 50 -33 67 -27 13 -37 30 -68 110 l-36 94 27 16 c50 30 76 81 76 149 0
40 -6 70 -17 87 l-17 26 47 5 c37 4 53 12 79 41 38 41 41 58 14 83 -10 10 -28
37 -40 60 -11 23 -30 44 -41 48 -16 5 -20 15 -20 46 0 51 -16 51 -79 -3z"/>
<path d="M999 673 c-11 -3 -18 -19 -22 -51 -3 -26 -9 -56 -13 -67 -6 -16 0
-13 33 13 29 23 51 32 77 32 49 0 59 25 22 57 -25 21 -57 27 -97 16z"/>
</g>
</svg>
